<svg width="108" height="30" viewBox="0 0 108 30" fill="none" xmlns="http://www.w3.org/2000/svg">
<path d="M45.1136 12.2727V13.4091H40.4091V12.2727H45.1136ZM41.8182 21V11.0682C41.8182 10.5682 41.9356 10.1515 42.1705 9.81818C42.4053 9.48484 42.7102 9.23484 43.0852 9.06818C43.4602 8.90151 43.8561 8.81818 44.2727 8.81818C44.6023 8.81818 44.8712 8.84469 45.0795 8.89772C45.2879 8.95075 45.4432 8.99999 45.5455 9.04545L45.1591 10.2045C45.0909 10.1818 44.9962 10.1534 44.875 10.1193C44.7576 10.0852 44.6023 10.0682 44.4091 10.0682C43.9659 10.0682 43.6458 10.1799 43.4489 10.4034C43.2557 10.6269 43.1591 10.9545 43.1591 11.3864V21H41.8182Z" fill="white"/>
<path d="M46.9929 21V12.2727H48.2883V13.5909H48.3793C48.5383 13.1591 48.8262 12.8087 49.2429 12.5398C49.6596 12.2708 50.1293 12.1364 50.652 12.1364C50.7505 12.1364 50.8736 12.1383 51.0213 12.142C51.169 12.1458 51.2808 12.1515 51.3565 12.1591V13.5227C51.3111 13.5114 51.2069 13.4943 51.044 13.4716C50.8849 13.4451 50.7164 13.4318 50.5384 13.4318C50.1141 13.4318 49.7353 13.5208 49.402 13.6989C49.0724 13.8731 48.8111 14.1155 48.6179 14.4261C48.4285 14.7329 48.3338 15.0833 48.3338 15.4773V21H46.9929Z" fill="white"/>
<path d="M56.3395 21.1818C55.4986 21.1818 54.7732 20.9962 54.1633 20.625C53.5573 20.25 53.0895 19.7273 52.7599 19.0568C52.4342 18.3826 52.2713 17.5985 52.2713 16.7045C52.2713 15.8106 52.4342 15.0227 52.7599 14.3409C53.0895 13.6553 53.5478 13.1212 54.1349 12.7386C54.7258 12.3523 55.4152 12.1591 56.2031 12.1591C56.6577 12.1591 57.1065 12.2348 57.5497 12.3864C57.9929 12.5379 58.3963 12.7841 58.7599 13.125C59.1236 13.4621 59.4133 13.9091 59.6293 14.4659C59.8452 15.0227 59.9531 15.7083 59.9531 16.5227V17.0909H53.2258V15.9318H58.5895C58.5895 15.4394 58.491 15 58.294 14.6136C58.1009 14.2273 57.8243 13.9223 57.4645 13.6989C57.1084 13.4754 56.688 13.3636 56.2031 13.3636C55.669 13.3636 55.2069 13.4962 54.8168 13.7614C54.4304 14.0227 54.133 14.3636 53.9247 14.7841C53.7164 15.2045 53.6122 15.6553 53.6122 16.1364V16.9091C53.6122 17.5682 53.7258 18.1269 53.9531 18.5852C54.1842 19.0398 54.5043 19.3864 54.9134 19.625C55.3224 19.8598 55.7978 19.9773 56.3395 19.9773C56.6918 19.9773 57.0099 19.928 57.294 19.8295C57.5819 19.7273 57.83 19.5758 58.0384 19.375C58.2467 19.1704 58.4077 18.9167 58.5213 18.6136L59.8168 18.9773C59.6804 19.4167 59.4512 19.803 59.1293 20.1364C58.8073 20.4659 58.4096 20.7235 57.9361 20.9091C57.4626 21.0909 56.9304 21.1818 56.3395 21.1818Z" fill="white"/>
<path d="M67.9474 24.2727V19.6591H67.8338C67.7353 19.8182 67.5952 20.0189 67.4134 20.2614C67.2315 20.5 66.9721 20.714 66.6349 20.9034C66.2978 21.089 65.849 21.1818 65.2884 21.1818C64.5611 21.1818 63.919 20.9981 63.3622 20.6307C62.8054 20.2595 62.3698 19.7367 62.0554 19.0625C61.741 18.3845 61.5838 17.5833 61.5838 16.6591C61.5838 15.7424 61.741 14.947 62.0554 14.2727C62.3698 13.5985 62.8073 13.0776 63.3679 12.7102C63.9285 12.3428 64.5762 12.1591 65.3111 12.1591C65.8793 12.1591 66.3281 12.2538 66.6577 12.4432C66.991 12.6288 67.2448 12.8409 67.419 13.0795C67.5971 13.3144 67.7353 13.5076 67.8338 13.6591H67.9929V12.2727H69.2884V24.2727H67.9474ZM65.4702 19.9773C66.008 19.9773 66.4626 19.8371 66.8338 19.5568C67.205 19.2727 67.4872 18.8807 67.6804 18.3807C67.8736 17.8769 67.9702 17.2955 67.9702 16.6364C67.9702 15.9848 67.8755 15.4148 67.6861 14.9261C67.4967 14.4337 67.2164 14.0511 66.8452 13.7784C66.474 13.5019 66.0156 13.3636 65.4702 13.3636C64.902 13.3636 64.4285 13.5095 64.0497 13.8011C63.6747 14.089 63.3925 14.4811 63.2031 14.9773C63.0175 15.4697 62.9247 16.0227 62.9247 16.6364C62.9247 17.2576 63.0194 17.822 63.2088 18.3295C63.402 18.8333 63.6861 19.2348 64.0611 19.5341C64.4399 19.8295 64.9096 19.9773 65.4702 19.9773Z" fill="white"/>
<path d="M73.9702 21.1648C73.4133 21.1648 72.9171 21.0682 72.4815 20.875C72.0459 20.678 71.7012 20.3883 71.4474 20.0057C71.1974 19.6193 71.0724 19.1383 71.0724 18.5625C71.0724 18.0776 71.1615 17.6704 71.3395 17.3409C71.5175 17.0114 71.7599 16.7462 72.0668 16.5454C72.3736 16.3447 72.7221 16.1932 73.1122 16.0909C73.5062 15.9886 73.919 15.9167 74.3508 15.875C74.8584 15.822 75.2675 15.7727 75.5781 15.7273C75.8887 15.678 76.1141 15.6061 76.2543 15.5114C76.3944 15.4167 76.4645 15.2765 76.4645 15.0909V15.0568C76.4645 14.697 76.3509 14.4186 76.1236 14.2216C75.9001 14.0246 75.5819 13.9261 75.169 13.9261C74.7334 13.9261 74.3868 14.0227 74.1293 14.2159C73.8717 14.4053 73.7012 14.6439 73.6179 14.9318L71.3793 14.75C71.4929 14.2197 71.7164 13.7614 72.0497 13.375C72.383 12.9848 72.813 12.6856 73.3395 12.4773C73.8698 12.2651 74.4834 12.1591 75.1804 12.1591C75.6652 12.1591 76.1293 12.2159 76.5724 12.3295C77.0194 12.4432 77.4152 12.6193 77.7599 12.8579C78.1084 13.0966 78.383 13.4034 78.5838 13.7784C78.7846 14.1496 78.8849 14.5947 78.8849 15.1136V21H76.5895V19.7898H76.5213C76.3812 20.0625 76.1937 20.303 75.9588 20.5114C75.724 20.7159 75.4418 20.8769 75.1122 20.9943C74.7827 21.1079 74.402 21.1648 73.9702 21.1648ZM74.6633 19.4943C75.0194 19.4943 75.3338 19.4242 75.6065 19.2841C75.8793 19.1401 76.0933 18.947 76.2486 18.7045C76.4039 18.4621 76.4815 18.1875 76.4815 17.8807V16.9545C76.4058 17.0038 76.3016 17.0492 76.169 17.0909C76.0402 17.1288 75.8944 17.1648 75.7315 17.1989C75.5687 17.2292 75.4058 17.2576 75.2429 17.2841C75.08 17.3068 74.9323 17.3276 74.7997 17.3466C74.5156 17.3883 74.2675 17.4545 74.0554 17.5454C73.8433 17.6364 73.6785 17.7595 73.5611 17.9148C73.4437 18.0663 73.3849 18.2557 73.3849 18.4829C73.3849 18.8125 73.5043 19.0644 73.7429 19.2386C73.9853 19.4091 74.2921 19.4943 74.6633 19.4943Z" fill="white"/>
<path d="M84.706 21.1705C83.812 21.1705 83.0431 20.9811 82.3991 20.6023C81.759 20.2197 81.2666 19.6894 80.9219 19.0114C80.581 18.3333 80.4105 17.553 80.4105 16.6704C80.4105 15.7765 80.5829 14.9924 80.9276 14.3182C81.276 13.6401 81.7704 13.1117 82.4105 12.7329C83.0507 12.3504 83.812 12.1591 84.6946 12.1591C85.456 12.1591 86.1226 12.2973 86.6946 12.5739C87.2666 12.8504 87.7192 13.2386 88.0526 13.7386C88.3859 14.2386 88.5696 14.8258 88.6037 15.5H86.3196C86.2552 15.0644 86.0848 14.714 85.8082 14.4489C85.5355 14.1799 85.1776 14.0454 84.7344 14.0454C84.3594 14.0454 84.0317 14.1477 83.7514 14.3523C83.4749 14.553 83.259 14.8466 83.1037 15.2329C82.9484 15.6193 82.8707 16.0871 82.8707 16.6364C82.8707 17.1932 82.9465 17.6667 83.098 18.0568C83.2533 18.447 83.4711 18.7443 83.7514 18.9489C84.0317 19.1534 84.3594 19.2557 84.7344 19.2557C85.0109 19.2557 85.259 19.1989 85.4787 19.0852C85.7022 18.9716 85.8859 18.8068 86.0298 18.5909C86.1776 18.3712 86.2741 18.1079 86.3196 17.8011H88.6037C88.5658 18.4678 88.384 19.0549 88.0582 19.5625C87.7363 20.0663 87.2912 20.4602 86.723 20.7443C86.1548 21.0284 85.4825 21.1705 84.706 21.1705Z" fill="white"/>
<path d="M92.642 21.1648C92.0852 21.1648 91.589 21.0682 91.1534 20.875C90.7178 20.678 90.3731 20.3883 90.1193 20.0057C89.8693 19.6193 89.7443 19.1383 89.7443 18.5625C89.7443 18.0776 89.8333 17.6704 90.0114 17.3409C90.1894 17.0114 90.4318 16.7462 90.7386 16.5454C91.0455 16.3447 91.3939 16.1932 91.7841 16.0909C92.178 15.9886 92.5909 15.9167 93.0227 15.875C93.5303 15.822 93.9394 15.7727 94.25 15.7273C94.5606 15.678 94.786 15.6061 94.9261 15.5114C95.0663 15.4167 95.1364 15.2765 95.1364 15.0909V15.0568C95.1364 14.697 95.0227 14.4186 94.7955 14.2216C94.572 14.0246 94.2538 13.9261 93.8409 13.9261C93.4053 13.9261 93.0587 14.0227 92.8011 14.2159C92.5436 14.4053 92.3731 14.6439 92.2898 14.9318L90.0511 14.75C90.1648 14.2197 90.3883 13.7614 90.7216 13.375C91.0549 12.9848 91.4848 12.6856 92.0114 12.4773C92.5417 12.2651 93.1553 12.1591 93.8523 12.1591C94.3371 12.1591 94.8011 12.2159 95.2443 12.3295C95.6913 12.4432 96.0871 12.6193 96.4318 12.8579C96.7803 13.0966 97.0549 13.4034 97.2557 13.7784C97.4564 14.1496 97.5568 14.5947 97.5568 15.1136V21H95.2614V19.7898H95.1932C95.053 20.0625 94.8655 20.303 94.6307 20.5114C94.3958 20.7159 94.1136 20.8769 93.7841 20.9943C93.4545 21.1079 93.0739 21.1648 92.642 21.1648ZM93.3352 19.4943C93.6913 19.4943 94.0057 19.4242 94.2784 19.2841C94.5511 19.1401 94.7651 18.947 94.9205 18.7045C95.0758 18.4621 95.1534 18.1875 95.1534 17.8807V16.9545C95.0776 17.0038 94.9735 17.0492 94.8409 17.0909C94.7121 17.1288 94.5663 17.1648 94.4034 17.1989C94.2405 17.2292 94.0776 17.2576 93.9148 17.2841C93.7519 17.3068 93.6042 17.3276 93.4716 17.3466C93.1875 17.3883 92.9394 17.4545 92.7273 17.5454C92.5151 17.6364 92.3504 17.7595 92.233 17.9148C92.1155 18.0663 92.0568 18.2557 92.0568 18.4829C92.0568 18.8125 92.1761 19.0644 92.4148 19.2386C92.6572 19.4091 92.964 19.4943 93.3352 19.4943Z" fill="white"/>
<path d="M102.651 21.142C101.988 21.142 101.387 20.9716 100.849 20.6307C100.315 20.286 99.8911 19.7803 99.5767 19.1136C99.2661 18.4432 99.1108 17.6212 99.1108 16.6477C99.1108 15.6477 99.2718 14.8163 99.5937 14.1534C99.9157 13.4867 100.344 12.9886 100.878 12.6591C101.416 12.3258 102.005 12.1591 102.645 12.1591C103.134 12.1591 103.541 12.2424 103.866 12.4091C104.196 12.572 104.461 12.7765 104.662 13.0227C104.866 13.2651 105.022 13.5038 105.128 13.7386H105.202V9.36363H107.616V21H105.23V19.6023H105.128C105.014 19.8447 104.853 20.0852 104.645 20.3239C104.44 20.5587 104.173 20.7538 103.844 20.9091C103.518 21.0644 103.12 21.142 102.651 21.142ZM103.418 19.2159C103.808 19.2159 104.137 19.1098 104.406 18.8977C104.679 18.6818 104.887 18.3807 105.031 17.9943C105.179 17.6079 105.253 17.1553 105.253 16.6364C105.253 16.1174 105.181 15.6667 105.037 15.2841C104.893 14.9015 104.685 14.6061 104.412 14.3977C104.139 14.1894 103.808 14.0852 103.418 14.0852C103.02 14.0852 102.685 14.1932 102.412 14.4091C102.139 14.625 101.933 14.9242 101.793 15.3068C101.652 15.6894 101.582 16.1326 101.582 16.6364C101.582 17.1439 101.652 17.5928 101.793 17.9829C101.937 18.3693 102.143 18.6723 102.412 18.892C102.685 19.108 103.02 19.2159 103.418 19.2159Z" fill="white"/>
<rect width="30" height="30" rx="8" fill="white" fill-opacity="0.2"/>
<path d="M12.5 9.16666H10.8333C10.3913 9.16666 9.96739 9.34225 9.65483 9.65481C9.34227 9.96737 9.16667 10.3913 9.16667 10.8333V20.8333C9.16667 21.2754 9.34227 21.6993 9.65483 22.0118C9.96739 22.3244 10.3913 22.5 10.8333 22.5H19.1667C19.6087 22.5 20.0326 22.3244 20.3452 22.0118C20.6577 21.6993 20.8333 21.2754 20.8333 20.8333V10.8333C20.8333 10.3913 20.6577 9.96737 20.3452 9.65481C20.0326 9.34225 19.6087 9.16666 19.1667 9.16666H17.5" stroke="white" stroke-width="1.5" stroke-linecap="round" stroke-linejoin="round"/>
<path d="M15.8333 7.5H14.1667C13.2462 7.5 12.5 8.24619 12.5 9.16667C12.5 10.0871 13.2462 10.8333 14.1667 10.8333H15.8333C16.7538 10.8333 17.5 10.0871 17.5 9.16667C17.5 8.24619 16.7538 7.5 15.8333 7.5Z" stroke="white" stroke-width="1.5" stroke-linecap="round" stroke-linejoin="round"/>
<path d="M12.5 19.1667V15" stroke="white" stroke-width="1.5" stroke-linecap="round" stroke-linejoin="round"/>
<path d="M15 19.1667V18.3333" stroke="white" stroke-width="1.5" stroke-linecap="round" stroke-linejoin="round"/>
<path d="M17 19.5V17" stroke="white" stroke-width="1.5" stroke-linecap="round" stroke-linejoin="round"/>
</svg>
